<?xml version="1.0" encoding="UTF-8"?>
<svg id="Capa_2" data-name="Capa 2" xmlns="http://www.w3.org/2000/svg" viewBox="0 0 31 31">
  <defs>
    <style>
      .cls-1 {
        fill: #fff;
      }
    </style>
  </defs>
  <g id="Capa_1-2" data-name="Capa 1">
    <g>
      <path class="cls-1" d="M8.22,31H0V0h31v31h-8.22c.72-.36.33-1.36.42-2.03,1.68-2.57,3.86-4.84,5.49-7.44.16-.4.15-.83.13-1.25-.11-2.27-.54-4.64-.69-6.92-.58-2.17-3.8-1.93-3.96.33-.13,1.77.14,3.73,0,5.5-.03.39-.15.81-.48,1.06-.53-.95-1.75-1.23-2.68-.65-.54.34-2.07,2.49-2.54,3.14-.34.47-.71.93-.95,1.46-.81,1.82-.24,4.27-.42,6.24-.02.3.19.45.43.57h-3.99c.32-.21.4-.44.43-.81.11-1.48.13-4.55-.41-5.88-.36-.88-2.45-3.67-3.15-4.4-.92-.96-2.41-.78-3.11.33-.22-.26-.36-.46-.4-.81-.15-1.73.13-3.69,0-5.44-.18-2.59-3.27-2.95-4.02-.57-.12,2.31-.62,4.75-.69,7.04-.02.8.14,1.2.58,1.84,1.52,2.21,3.45,4.28,4.99,6.49.22.73-.31,1.76.47,2.22ZM15.46.08c-2.47.72-5.34.96-7.76,1.73-.23.07-.38.14-.48.37.08,3.41-.47,6.96.71,10.23,1.11,3.06,3.52,5.71,6.49,7.05.27.12.94.44,1.2.43.2,0,.76-.26.98-.35,3.46-1.5,6.2-4.8,7.06-8.47.65-2.78.19-5.83.33-8.67.01-.26-.17-.48-.41-.56L15.67.06h-.21Z"/>
      <path class="cls-1" d="M13.17,31h-4.59c.21-.14.38-.24.42-.52.05-.32.04-1.85-.06-2.11l-5.34-6.99c-.36-.6-.15-1.5-.1-2.2.15-1.85.39-3.7.56-5.54.34-.92,1.49-.74,1.61.23.21,1.78-.15,3.93,0,5.74.02.29.12.54.23.79l2.65,3.46c.56.39,1.17-.19.87-.81-.29-.59-1.94-1.86-.83-2.46.41-.22.69-.05.98.25.57.59,2.45,3.05,2.78,3.75.78,1.64.22,4.16.4,5.95.04.25.22.34.42.46Z"/>
      <path class="cls-1" d="M22.42,31h-4.53c.28-.2.39-.34.42-.7.17-1.64-.34-4.05.27-5.53.31-.74,2.24-3.3,2.84-3.93.33-.35.77-.52,1.15-.12.93.96-1.69,2.2-.94,3.06.19.21.54.27.78.11.69-.84,1.38-1.69,2.02-2.57.55-.75.88-1.08.95-2.08.13-1.8-.1-3.74,0-5.56.26-1,1.6-.77,1.62.24.07,2.13.52,4.27.61,6.4.01.34.04.7-.15.99l-5.4,7.05c-.1.25-.11,1.79-.06,2.11.04.25.25.36.42.52Z"/>
      <path d="M22.78,31h-.36c-.17-.15-.38-.27-.42-.52-.05-.31-.04-1.86.06-2.11l5.4-7.05c.19-.29.17-.66.15-.99-.09-2.13-.54-4.26-.61-6.4-.02-1.01-1.36-1.25-1.62-.24-.11,1.82.12,3.76,0,5.56-.07.99-.4,1.33-.95,2.08-.64.88-1.34,1.73-2.02,2.57-.24.16-.6.1-.78-.11-.75-.85,1.87-2.09.94-3.06-.39-.4-.82-.23-1.15.12-.6.63-2.53,3.19-2.84,3.93-.61,1.48-.11,3.89-.27,5.53-.04.35-.14.49-.42.7h-.36c-.24-.12-.44-.27-.43-.57.18-1.97-.4-4.41.42-6.24.24-.54.61-.99.95-1.46.47-.65,2-2.8,2.54-3.14.93-.58,2.15-.29,2.68.65.33-.24.45-.66.48-1.06.14-1.77-.14-3.73,0-5.5.17-2.26,3.39-2.5,3.96-.33.15,2.28.58,4.65.69,6.92.02.42.02.86-.13,1.25-1.62,2.61-3.81,4.88-5.49,7.44-.1.66.3,1.67-.42,2.03Z"/>
      <path d="M13.54,31h-.36c-.2-.11-.38-.2-.42-.46-.18-1.79.38-4.31-.4-5.95-.33-.69-2.21-3.16-2.78-3.75-.29-.3-.57-.47-.98-.25-1.11.59.54,1.87.83,2.46.3.62-.31,1.2-.87.81l-2.65-3.46c-.11-.26-.21-.51-.23-.79-.16-1.81.21-3.96,0-5.74-.12-.98-1.27-1.15-1.61-.23-.17,1.85-.41,3.7-.56,5.54-.06.7-.27,1.6.1,2.2l5.34,6.99c.1.25.11,1.79.06,2.11-.04.28-.21.38-.42.52h-.36c-.78-.46-.25-1.49-.47-2.22-1.55-2.21-3.47-4.28-4.99-6.49-.44-.64-.6-1.04-.58-1.84.07-2.29.58-4.73.69-7.04.76-2.38,3.84-2.01,4.02.57.12,1.75-.16,3.71,0,5.44.03.36.17.55.4.81.7-1.11,2.19-1.29,3.11-.33.7.73,2.79,3.52,3.15,4.4.54,1.33.52,4.4.41,5.88-.03.38-.1.6-.43.81Z"/>
      <path d="M15.46.08h.21s7.91,1.75,7.91,1.75c.24.07.43.3.41.56-.14,2.85.32,5.89-.33,8.67-.86,3.67-3.6,6.97-7.06,8.47-.22.09-.78.35-.98.35-.26,0-.93-.31-1.2-.43-2.97-1.34-5.38-3.99-6.49-7.05-1.18-3.27-.63-6.82-.71-10.23.1-.23.25-.3.48-.37,2.43-.77,5.29-1.01,7.76-1.73ZM15.57,1.29l-7.14,1.61c.06,2.97-.39,6.06.58,8.92.85,2.49,2.75,4.79,5.04,6.08.24.14,1.38.73,1.58.71.21-.01,1.28-.58,1.53-.71,2.55-1.44,4.54-4.04,5.27-6.87.67-2.57.25-5.33.37-7.97l-.03-.15-7.19-1.61Z"/>
      <path class="cls-1" d="M15.57,1.29l7.19,1.61.03.15c-.12,2.64.3,5.4-.37,7.97-.74,2.84-2.72,5.43-5.27,6.87-.25.14-1.32.7-1.53.71-.19.01-1.33-.58-1.58-.71-2.29-1.29-4.19-3.59-5.04-6.08-.97-2.86-.52-5.94-.58-8.92l7.14-1.61ZM20.54,4.66c-.06,1.68.15,3.43-.14,5.08-.48,2.77-2.28,5.12-4.75,6.43-.09.02-.54-.24-.66-.31-2.32-1.37-3.85-3.77-4.28-6.42-.08-.51.08-1.61-.71-1.58s-.57,1.08-.51,1.59c.36,2.92,2.14,5.72,4.61,7.29.28.18,1.01.62,1.3.7.36.1.93-.26,1.25-.44,2.32-1.3,4.15-3.75,4.79-6.33.53-2.15.25-4.47.28-6.68l-.21-.27-5.9-1.36-5.96,1.36c-.5.42-.19,1.14.46,1.06l5.49-1.19,4.93,1.07ZM9.83,5.75c-.8.18-.3,1.56.5,1.1.59-.34.27-1.28-.5-1.1ZM18.48,6.36l-4.03,3.59-.16-.03c-.31-.31-.95-1.35-1.35-1.43-.5-.1-.91.45-.65.9.54.51,1.13,1.58,1.71,1.98.49.34.88-.15,1.24-.45,1.36-1.15,2.59-2.46,3.95-3.6.35-.55-.05-1.12-.71-.95Z"/>
      <path d="M20.54,4.66l-4.93-1.07-5.49,1.19c-.65.07-.95-.64-.46-1.06l5.96-1.36,5.9,1.36.21.27c-.03,2.2.25,4.52-.28,6.68-.64,2.58-2.47,5.03-4.79,6.33-.32.18-.89.54-1.25.44-.29-.08-1.01-.51-1.3-.7-2.48-1.57-4.25-4.37-4.61-7.29-.06-.51-.26-1.56.51-1.59s.62,1.07.71,1.58c.43,2.65,1.96,5.05,4.28,6.42.12.07.57.34.66.31,2.47-1.31,4.27-3.66,4.75-6.43.29-1.65.08-3.41.14-5.08Z"/>
      <path d="M18.48,6.36c.66-.17,1.06.39.71.95-1.36,1.14-2.6,2.45-3.95,3.6-.36.31-.75.79-1.24.45-.58-.4-1.17-1.47-1.71-1.98-.25-.45.16-1,.65-.9.4.08,1.04,1.12,1.35,1.43l.16.03,4.03-3.59Z"/>
      <path d="M9.83,5.75c.76-.18,1.08.76.5,1.1-.79.46-1.3-.91-.5-1.1Z"/>
    </g>
  </g>
</svg>