<?xml version="1.0" encoding="UTF-8"?>
<svg id="Capa_2" data-name="Capa 2" xmlns="http://www.w3.org/2000/svg" viewBox="0 0 66 66">
  <defs>
    <style>
      .cls-1 {
        fill: #fff;
      }
    </style>
  </defs>
  <g id="Capa_1-2" data-name="Capa 1">
    <g>
      <path class="cls-1" d="M17.5,66H0V0h66v66h-17.5c1.53-.76.69-2.9.89-4.32,3.57-5.46,8.23-10.3,11.68-15.85.33-.85.33-1.77.29-2.67-.23-4.84-1.16-9.88-1.47-14.74-1.23-4.62-8.08-4.1-8.44.71-.28,3.77.31,7.95.01,11.72-.07.84-.33,1.73-1.03,2.25-1.12-2.02-3.73-2.63-5.71-1.39-1.16.72-4.41,5.31-5.41,6.68-.73,1-1.52,1.98-2.03,3.12-1.73,3.88-.51,9.09-.88,13.28-.03.65.4.96.91,1.22h-8.49c.69-.46.85-.93.91-1.73.23-3.15.28-9.68-.88-12.51-.77-1.88-5.21-7.8-6.71-9.37-1.95-2.04-5.14-1.65-6.62.7-.48-.55-.77-.97-.84-1.73-.33-3.69.27-7.86.01-11.59-.38-5.5-6.95-6.29-8.57-1.22-.25,4.92-1.32,10.11-1.47,15-.05,1.71.29,2.55,1.23,3.91,3.24,4.7,7.34,9.11,10.63,13.81.47,1.55-.65,3.75,1,4.73ZM32.91.16c-5.26,1.53-11.36,2.05-16.53,3.68-.48.15-.8.29-1.02.78.17,7.26-1,14.82,1.52,21.78,2.36,6.51,7.5,12.15,13.82,15,.57.26,2.01.94,2.55.92.43-.01,1.62-.55,2.09-.76,7.36-3.19,13.2-10.21,15.03-18.03,1.39-5.93.41-12.41.71-18.47.03-.55-.36-1.02-.88-1.18L33.37.14l-.46.02Z"/>
      <path class="cls-1" d="M28.05,66h-9.78c.45-.3.8-.51.89-1.1.1-.68.08-3.94-.13-4.48l-11.36-14.88c-.78-1.28-.33-3.2-.2-4.68.33-3.94.84-7.87,1.19-11.8.72-1.96,3.18-1.58,3.43.49.45,3.78-.32,8.36,0,12.21.05.61.26,1.14.5,1.69l5.64,7.36c1.19.83,2.5-.41,1.85-1.72-.61-1.25-4.13-3.97-1.77-5.23.88-.47,1.46-.1,2.09.54,1.21,1.25,5.22,6.5,5.91,7.98,1.65,3.5.46,8.85.85,12.66.08.54.47.73.89.97Z"/>
      <path class="cls-1" d="M47.73,66h-9.65c.6-.43.82-.73.9-1.48.35-3.49-.72-8.61.59-11.77.65-1.58,4.76-7.03,6.04-8.37.71-.75,1.63-1.12,2.45-.26,1.97,2.05-3.59,4.69-2,6.51.4.45,1.16.58,1.67.24,1.46-1.79,2.94-3.6,4.31-5.47,1.17-1.6,1.87-2.3,2.01-4.42.27-3.83-.22-7.96,0-11.83.54-2.13,3.4-1.64,3.45.52.15,4.54,1.11,9.09,1.3,13.62.03.71.08,1.49-.33,2.11l-11.49,15.01c-.21.53-.24,3.82-.13,4.48.08.52.53.78.89,1.1Z"/>
      <path d="M48.5,66h-.77c-.36-.32-.81-.58-.89-1.1-.11-.66-.08-3.95.13-4.48l11.49-15.01c.41-.62.36-1.4.33-2.11-.19-4.53-1.15-9.08-1.3-13.62-.04-2.16-2.9-2.65-3.45-.52-.23,3.87.26,8,0,11.83-.15,2.12-.84,2.82-2.01,4.42-1.37,1.87-2.84,3.68-4.31,5.47-.51.34-1.27.21-1.67-.24-1.59-1.82,3.97-4.46,2-6.51-.82-.86-1.74-.48-2.45.26-1.28,1.34-5.39,6.79-6.04,8.37-1.31,3.15-.23,8.28-.59,11.77-.08.75-.29,1.05-.9,1.48h-.77c-.51-.26-.94-.57-.91-1.22.38-4.19-.84-9.4.88-13.28.51-1.14,1.3-2.11,2.03-3.12,1-1.38,4.26-5.96,5.41-6.68,1.98-1.23,4.59-.63,5.71,1.39.7-.52.97-1.41,1.03-2.25.3-3.77-.29-7.94-.01-11.72.36-4.81,7.21-5.33,8.44-.71.31,4.86,1.24,9.9,1.47,14.74.04.9.05,1.82-.29,2.67-3.46,5.55-8.12,10.39-11.68,15.85-.2,1.41.64,3.56-.89,4.32Z"/>
      <path d="M28.82,66h-.77c-.42-.24-.81-.43-.89-.97-.38-3.82.81-9.17-.85-12.66-.7-1.48-4.7-6.73-5.91-7.98-.62-.64-1.21-1.01-2.09-.54-2.36,1.26,1.16,3.98,1.77,5.23.65,1.32-.66,2.56-1.85,1.72l-5.64-7.36c-.23-.55-.44-1.08-.5-1.69-.33-3.85.44-8.43,0-12.21-.25-2.08-2.71-2.46-3.43-.49-.36,3.93-.87,7.87-1.19,11.8-.12,1.48-.57,3.41.2,4.68l11.36,14.88c.22.54.24,3.8.13,4.48-.09.59-.44.81-.89,1.1h-.77c-1.65-.97-.53-3.17-1-4.73-3.3-4.7-7.4-9.11-10.63-13.81-.94-1.37-1.28-2.2-1.23-3.91.15-4.88,1.23-10.08,1.47-15,1.62-5.06,8.19-4.28,8.57,1.22.26,3.73-.34,7.9-.01,11.59.07.76.37,1.18.84,1.73,1.49-2.36,4.67-2.74,6.62-.7,1.5,1.56,5.94,7.49,6.71,9.37,1.16,2.83,1.12,9.36.88,12.51-.06.8-.22,1.28-.91,1.73Z"/>
      <path d="M32.91.16l.46-.02,16.84,3.75c.51.16.91.63.88,1.18-.31,6.06.67,12.54-.71,18.47-1.83,7.82-7.67,14.85-15.03,18.03-.47.2-1.65.74-2.09.76-.55.02-1.98-.67-2.55-.92-6.32-2.85-11.46-8.49-13.82-15-2.52-6.96-1.34-14.52-1.52-21.78.21-.49.54-.63,1.02-.78,5.16-1.63,11.27-2.15,16.53-3.68ZM33.15,2.75l-15.21,3.42c.13,6.33-.83,12.9,1.23,18.99,1.8,5.31,5.85,10.19,10.72,12.95.51.29,2.94,1.55,3.36,1.52.44-.03,2.72-1.22,3.25-1.52,5.43-3.07,9.66-8.59,11.23-14.63,1.42-5.48.53-11.36.79-16.98l-.06-.32-15.3-3.42Z"/>
      <path class="cls-1" d="M33.15,2.75l15.3,3.42.06.32c-.26,5.62.63,11.5-.79,16.98-1.57,6.04-5.8,11.56-11.23,14.63-.52.3-2.81,1.49-3.25,1.52-.41.03-2.84-1.23-3.36-1.52-4.87-2.76-8.92-7.64-10.72-12.95-2.06-6.09-1.1-12.65-1.23-18.99l15.21-3.42ZM43.74,9.91c-.13,3.57.32,7.3-.29,10.82-1.03,5.91-4.86,10.91-10.12,13.69-.19.05-1.15-.52-1.41-.67-4.94-2.91-8.2-8.02-9.11-13.66-.17-1.09.16-3.44-1.5-3.37s-1.22,2.3-1.09,3.38c.77,6.23,4.55,12.17,9.82,15.52.61.38,2.14,1.31,2.77,1.48.77.21,1.97-.56,2.66-.95,4.93-2.76,8.84-7.99,10.2-13.48,1.13-4.58.53-9.52.6-14.21l-.45-.58-12.55-2.9-12.68,2.9c-1.06.9-.4,2.42.97,2.27l11.69-2.53,10.5,2.27ZM20.93,12.25c-1.71.39-.64,3.31,1.06,2.34,1.25-.72.57-2.72-1.06-2.34ZM39.34,13.54l-8.58,7.64-.33-.07c-.67-.67-2.03-2.87-2.88-3.05-1.06-.22-1.93.97-1.39,1.92,1.14,1.08,2.41,3.36,3.64,4.21,1.04.72,1.87-.31,2.64-.96,2.89-2.44,5.52-5.23,8.42-7.66.75-1.18-.1-2.39-1.51-2.02Z"/>
      <path d="M43.74,9.91l-10.5-2.27-11.69,2.53c-1.38.16-2.03-1.37-.97-2.27l12.68-2.9,12.55,2.9.45.58c-.07,4.69.54,9.63-.6,14.21-1.36,5.48-5.26,10.71-10.2,13.48-.69.39-1.9,1.16-2.66.95-.62-.17-2.16-1.1-2.77-1.48-5.27-3.35-9.05-9.3-9.82-15.52-.13-1.08-.56-3.31,1.09-3.38s1.33,2.28,1.5,3.37c.91,5.64,4.17,10.75,9.11,13.66.26.15,1.22.72,1.41.67,5.26-2.78,9.09-7.79,10.12-13.69.61-3.52.16-7.25.29-10.82Z"/>
      <path d="M39.34,13.54c1.41-.37,2.26.84,1.51,2.02-2.9,2.43-5.53,5.22-8.42,7.66-.77.65-1.6,1.68-2.64.96-1.23-.85-2.5-3.13-3.64-4.21-.54-.95.33-2.14,1.39-1.92.85.18,2.22,2.38,2.88,3.05l.33.07,8.58-7.64Z"/>
      <path d="M20.93,12.25c1.63-.38,2.31,1.62,1.06,2.34-1.69.97-2.76-1.95-1.06-2.34Z"/>
    </g>
  </g>
</svg>