<?xml version="1.0" encoding="UTF-8"?>
<svg id="Capa_2" data-name="Capa 2" xmlns="http://www.w3.org/2000/svg" viewBox="0 0 50 50">
  <defs>
    <style>
      .cls-1 {
        fill: #fff;
      }
    </style>
  </defs>
  <g id="Capa_1-2" data-name="Capa 1">
    <g>
      <path class="cls-1" d="M13.26,50H0V0h50v50h-13.26c1.16-.57.52-2.2.68-3.27,2.7-4.14,6.23-7.8,8.85-12.01.25-.64.25-1.34.22-2.02-.18-3.67-.88-7.48-1.11-11.17-.93-3.5-6.12-3.11-6.39.54-.21,2.86.23,6.02,0,8.88-.05.64-.25,1.31-.78,1.7-.85-1.53-2.82-1.99-4.32-1.06-.88.55-3.34,4.02-4.1,5.06-.55.76-1.15,1.5-1.54,2.36-1.31,2.94-.38,6.89-.67,10.06-.02.49.3.72.69.92h-6.43c.52-.35.64-.7.69-1.31.18-2.38.21-7.34-.67-9.48-.58-1.42-3.95-5.91-5.09-7.1-1.48-1.54-3.89-1.25-5.02.53-.36-.42-.59-.74-.64-1.31-.25-2.8.2-5.95,0-8.78-.29-4.17-5.27-4.76-6.49-.93-.19,3.73-1,7.66-1.11,11.36-.04,1.29.22,1.93.93,2.96,2.45,3.56,5.56,6.91,8.06,10.46.35,1.18-.5,2.84.76,3.58ZM24.93.12c-3.98,1.16-8.61,1.55-12.52,2.79-.36.11-.61.22-.77.59.13,5.5-.76,11.23,1.15,16.5,1.78,4.93,5.68,9.2,10.47,11.37.43.2,1.52.71,1.93.7.33-.01,1.23-.42,1.58-.57,5.58-2.41,10-7.74,11.39-13.66,1.05-4.49.31-9.4.54-13.99.02-.42-.27-.78-.66-.9L25.28.1l-.35.02Z"/>
      <path class="cls-1" d="M21.25,50h-7.41c.34-.22.61-.38.68-.83.08-.51.06-2.99-.1-3.4l-8.61-11.28c-.59-.97-.25-2.42-.15-3.55.25-2.98.63-5.96.9-8.94.54-1.49,2.41-1.2,2.59.37.34,2.87-.25,6.33,0,9.25.04.46.2.86.38,1.28l4.27,5.57c.9.63,1.89-.31,1.4-1.31-.46-.94-3.13-3.01-1.34-3.96.67-.36,1.11-.08,1.58.41.92.95,3.95,4.93,4.48,6.05,1.25,2.65.35,6.7.64,9.59.06.41.36.56.68.74Z"/>
      <path class="cls-1" d="M36.16,50h-7.31c.46-.33.62-.55.68-1.12.27-2.64-.55-6.53.44-8.91.5-1.2,3.61-5.32,4.58-6.34.54-.57,1.23-.85,1.86-.2,1.49,1.55-2.72,3.55-1.52,4.93.3.34.88.44,1.26.18,1.11-1.36,2.23-2.73,3.26-4.14.89-1.21,1.41-1.74,1.52-3.35.2-2.9-.17-6.03,0-8.96.41-1.62,2.58-1.24,2.61.39.12,3.44.84,6.89.99,10.32.02.54.06,1.13-.25,1.6l-8.71,11.37c-.16.4-.18,2.89-.1,3.4.06.4.41.59.68.83Z"/>
      <path d="M36.74,50h-.58c-.27-.25-.61-.44-.68-.83-.08-.5-.06-3,.1-3.4l8.71-11.37c.31-.47.27-1.06.25-1.6-.14-3.43-.87-6.88-.99-10.32-.03-1.63-2.2-2.01-2.61-.39-.17,2.93.2,6.06,0,8.96-.11,1.6-.64,2.14-1.52,3.35-1.04,1.41-2.15,2.79-3.26,4.14-.39.26-.96.16-1.26-.18-1.2-1.38,3.01-3.38,1.52-4.93-.62-.65-1.32-.37-1.86.2-.97,1.02-4.08,5.14-4.58,6.34-.99,2.39-.18,6.27-.44,8.91-.06.57-.22.8-.68,1.12h-.58c-.39-.2-.71-.43-.69-.92.29-3.17-.64-7.12.67-10.06.38-.86.99-1.6,1.54-2.36.75-1.04,3.22-4.52,4.1-5.06,1.5-.93,3.47-.47,4.32,1.06.53-.39.73-1.07.78-1.7.22-2.85-.22-6.02,0-8.88.27-3.65,5.46-4.04,6.39-.54.24,3.68.94,7.5,1.11,11.17.03.68.04,1.38-.22,2.02-2.62,4.21-6.15,7.87-8.85,12.01-.15,1.07.48,2.69-.68,3.27Z"/>
      <path d="M21.83,50h-.58c-.32-.18-.61-.33-.68-.74-.29-2.89.61-6.94-.64-9.59-.53-1.12-3.56-5.1-4.48-6.05-.47-.48-.91-.76-1.58-.41-1.79.95.88,3.02,1.34,3.96.49,1-.5,1.94-1.4,1.31l-4.27-5.57c-.18-.42-.34-.82-.38-1.28-.25-2.92.33-6.39,0-9.25-.19-1.57-2.05-1.86-2.59-.37-.27,2.98-.66,5.96-.9,8.94-.09,1.12-.43,2.58.15,3.55l8.61,11.28c.16.41.18,2.88.1,3.4-.07.45-.33.61-.68.83h-.58c-1.25-.74-.4-2.41-.76-3.58-2.5-3.56-5.6-6.9-8.06-10.46-.71-1.03-.97-1.67-.93-2.96.11-3.7.93-7.64,1.11-11.36,1.22-3.84,6.2-3.24,6.49.93.2,2.83-.25,5.98,0,8.78.05.57.28.89.64,1.31,1.13-1.79,3.54-2.08,5.02-.53,1.14,1.19,4.5,5.67,5.09,7.1.88,2.14.85,7.09.67,9.48-.04.61-.17.97-.69,1.31Z"/>
      <path d="M24.93.12l.35-.02,12.76,2.84c.39.12.69.48.66.9-.23,4.59.51,9.5-.54,13.99-1.39,5.92-5.81,11.25-11.39,13.66-.35.15-1.25.56-1.58.57-.41.01-1.5-.5-1.93-.7-4.79-2.16-8.68-6.43-10.47-11.37-1.91-5.27-1.02-11-1.15-16.5.16-.37.41-.48.77-.59,3.91-1.24,8.54-1.63,12.52-2.79ZM25.11,2.08l-11.52,2.59c.1,4.8-.63,9.77.93,14.38,1.36,4.02,4.43,7.72,8.12,9.81.39.22,2.23,1.17,2.54,1.15.33-.02,2.06-.93,2.46-1.15,4.11-2.33,7.32-6.51,8.5-11.09,1.08-4.15.4-8.6.6-12.86l-.05-.25-11.59-2.59Z"/>
      <path class="cls-1" d="M25.11,2.08l11.59,2.59.05.25c-.2,4.26.48,8.71-.6,12.86-1.19,4.58-4.39,8.76-8.5,11.09-.4.22-2.13,1.13-2.46,1.15-.31.02-2.15-.93-2.54-1.15-3.69-2.09-6.76-5.79-8.12-9.81-1.56-4.61-.83-9.59-.93-14.38l11.52-2.59ZM33.13,7.51c-.1,2.71.24,5.53-.22,8.2-.78,4.47-3.68,8.27-7.67,10.37-.14.04-.87-.39-1.07-.51-3.74-2.2-6.22-6.08-6.9-10.35-.13-.82.12-2.6-1.14-2.55s-.93,1.74-.82,2.56c.58,4.72,3.45,9.22,7.44,11.76.46.29,1.62.99,2.1,1.12.58.16,1.49-.42,2.02-.72,3.74-2.09,6.7-6.05,7.72-10.21.86-3.47.4-7.21.45-10.77l-.34-.44-9.51-2.19-9.61,2.19c-.8.68-.31,1.84.74,1.72l8.85-1.92,7.95,1.72ZM15.86,9.28c-1.29.3-.48,2.51.8,1.77.95-.54.43-2.06-.8-1.77ZM29.8,10.26l-6.5,5.79-.25-.05c-.51-.51-1.54-2.17-2.19-2.31-.8-.17-1.46.73-1.05,1.45.87.82,1.83,2.54,2.76,3.19.79.55,1.41-.23,2-.73,2.19-1.85,4.18-3.96,6.38-5.81.57-.89-.07-1.81-1.14-1.53Z"/>
      <path d="M33.13,7.51l-7.95-1.72-8.85,1.92c-1.04.12-1.54-1.04-.74-1.72l9.61-2.19,9.51,2.19.34.44c-.05,3.55.41,7.3-.45,10.77-1.03,4.16-3.99,8.12-7.72,10.21-.52.29-1.44.88-2.02.72-.47-.13-1.64-.83-2.1-1.12-3.99-2.54-6.86-7.04-7.44-11.76-.1-.82-.42-2.51.82-2.56s1.01,1.73,1.14,2.55c.69,4.27,3.16,8.15,6.9,10.35.2.12.92.55,1.07.51,3.99-2.11,6.89-5.9,7.67-10.37.46-2.67.12-5.49.22-8.2Z"/>
      <path d="M29.8,10.26c1.07-.28,1.71.64,1.14,1.53-2.2,1.84-4.19,3.96-6.38,5.81-.59.5-1.21,1.28-2,.73-.93-.65-1.89-2.37-2.76-3.19-.41-.72.25-1.62,1.05-1.45.64.14,1.68,1.8,2.19,2.31l.25.05,6.5-5.79Z"/>
      <path d="M15.86,9.28c1.23-.28,1.75,1.23.8,1.77-1.28.74-2.09-1.47-.8-1.77Z"/>
    </g>
  </g>
</svg>